Coordinates
version=1
nRows=9
nColumns=32
inDegrees=yes

Units are S.I. units (second, meters, Newtons, ...)
If the header above contains a line with 'inDegrees', this indicates whether rotational values are in degrees (yes) or radians (no).

endheader
time	pelvis_tilt	pelvis_list	pelvis_rotation	pelvis_tx	pelvis_ty	pelvis_tz	hip_flexion_r	hip_adduction_r	hip_rotation_r	knee_angle_r	ankle_angle_r	subtalar_angle_r	mtp_angle_r	hip_flexion_l	hip_adduction_l	hip_rotation_l	knee_angle_l	ankle_angle_l	subtalar_angle_l	mtp_angle_l	lumbar_extension	lumbar_bending	lumbar_rotation	arm_flex_r	arm_add_r	arm_rot_r	elbow_flex_r	arm_flex_l	arm_add_l	arm_rot_l	elbow_flex_l
      4.50000000	    -12.83859334	     -5.71127499	      8.86227293	      0.97071029	      0.88260748	     -0.15772764	     36.16422090	     -3.09764197	    -16.26159824	    -61.68917280	     -0.03618704	    -14.42800632	      0.00000000	     31.15889267	     -1.25439660	     -1.41126612	    -28.34197889	      0.00870768	    -27.97701682	      0.00000000	      3.27078954	     -9.97826659	     -4.51766105	      0.00000000	      0.00000000	      0.00000000	      0.00000000	      0.00000000	      0.00000000	      0.00000000	      0.00000000
      4.51000000	    -12.81019630	     -5.87571220	      9.36626684	      0.97905716	      0.88393797	     -0.15865946	     37.77823429	     -3.37592632	    -16.45157509	    -61.09277266	      0.03369582	    -14.39759034	      0.00000000	     30.34895508	     -1.46206259	     -1.67956243	    -27.91121083	      0.05465666	    -27.94462908	      0.00000000	      2.75230055	     -9.72624507	     -4.52152727	      0.00000000	      0.00000000	      0.00000000	      0.00000000	      0.00000000	      0.00000000	      0.00000000	      0.00000000
      4.52000000	    -12.87194659	     -5.29834009	     10.06864922	      0.98851276	      0.88549102	     -0.16108085	     39.21328372	     -4.93187153	    -16.97157580	    -60.64501799	      1.24851299	    -13.73516452	      0.00000000	     28.79406978	     -0.47143264	     -0.94292319	    -26.28537218	      0.73625043	    -27.32935684	      0.00000000	      2.64141894	    -10.07473007	     -5.37980359	      0.00000000	      0.00000000	      0.00000000	      0.00000000	      0.00000000	      0.00000000	      0.00000000	      0.00000000
      4.53000000	    -12.91429876	     -5.39857441	     10.36031764	      0.99753103	      0.88673760	     -0.16227931	     40.66417131	     -5.15463275	    -17.16100489	    -59.65317882	      1.48020385	    -13.66751078	      0.00000000	     27.77267981	     -0.55895818	     -0.95780252	    -25.45999330	      0.83260874	    -27.20582015	      0.00000000	      2.44728731	     -9.77350022	     -5.53146981	      0.00000000	      0.00000000	      0.00000000	      0.00000000	      0.00000000	      0.00000000	      0.00000000	      0.00000000
      4.54000000	    -12.97981515	     -5.23585209	     10.89923691	      1.00644213	      0.88808027	     -0.16384903	     41.92685918	     -5.77336588	    -17.26009354	    -58.42542725	      2.61852306	    -13.75841170	      0.00000000	     26.59647176	     -0.13128260	     -0.21273510	    -24.32020313	      1.22119113	    -27.05560311	      0.00000000	      2.19339694	     -9.75691534	     -5.94523948	      0.00000000	      0.00000000	      0.00000000	      0.00000000	      0.00000000	      0.00000000	      0.00000000	      0.00000000
      4.55000000	    -13.07772348	     -5.18053209	     11.10362749	      1.01567630	      0.88881819	     -0.16561717	     43.14827239	     -6.34322886	    -17.50799679	    -57.08183562	      2.85372908	    -13.71806311	      0.00000000	     25.56907169	     -0.03662638	     -0.25275667	    -23.48666444	      1.30610919	    -26.97168772	      0.00000000	      2.16275303	     -9.32934706	     -6.08581265	      0.00000000	      0.00000000	      0.00000000	      0.00000000	      0.00000000	      0.00000000	      0.00000000	      0.00000000
      4.56000000	    -13.21266809	     -5.06582767	     11.34165130	      1.02501819	      0.88981756	     -0.16711144	     44.25094620	     -6.63510297	    -17.49504013	    -55.23100776	      3.14659807	    -13.80681009	      0.00000000	     24.49609813	      0.20742062	      0.13838567	    -22.51554945	      1.43055731	    -26.89063949	      0.00000000	      2.15828319	     -9.16517298	     -6.29922474	      0.00000000	      0.00000000	      0.00000000	      0.00000000	      0.00000000	      0.00000000	      0.00000000	      0.00000000
      4.57000000	    -13.37614972	     -4.94606655	     11.60064274	      1.03442843	      0.89015068	     -0.16904557	     45.26557913	     -7.14831492	    -17.59899985	    -53.40081396	      3.44942978	    -13.91689867	      0.00000000	     23.50543004	      0.47747994	      0.49139310	    -21.64762335	      1.53976239	    -26.84954834	      0.00000000	      2.20149783	     -8.88501466	     -6.47041396	      0.00000000	      0.00000000	      0.00000000	      0.00000000	      0.00000000	      0.00000000	      0.00000000	      0.00000000
      4.58000000	    -13.54594277	     -4.75767338	     11.90927675	      1.04374367	      0.89033311	     -0.17064176	     46.13258152	     -7.52361043	    -17.51213394	    -51.18108109	      3.67844620	    -14.00386563	      0.00000000	     22.56357496	      0.79499264	      0.91628676	    -20.89485409	      1.67958869	    -26.85813214	      0.00000000	      2.20849262	     -8.81541098	     -6.62822223	      0.00000000	      0.00000000	      0.00000000	      0.00000000	      0.00000000	      0.00000000	      0.00000000	      0.00000000
